<svg version="1.1" xmlns="http://www.w3.org/2000/svg" viewBox="0 0 640 440" width="1280" height="880">
  <!-- svg-source:excalidraw -->
  
  <defs>
    <style class="style-fonts">
      @font-face {
        font-family: "Virgil";
        src: url("https://excalidraw.com/Virgil.woff2");
      }
      @font-face {
        font-family: "Cascadia";
        src: url("https://excalidraw.com/Cascadia.woff2");
      }
    </style>
  </defs>
  <rect x="0" y="0" width="640" height="440" fill="#ffffff"></rect><g stroke-linecap="round" transform="translate(30 90) rotate(0 140 160)"><path d="M32 0 M32 0 C115.34 -1.77, 198.82 -1.24, 248 0 M32 0 C86.72 0.14, 140.28 -0.21, 248 0 M248 0 C271.29 -0.58, 279.8 9.96, 280 32 M248 0 C268.99 0.84, 279.44 11.91, 280 32 M280 32 C280.71 119.63, 281.1 205.61, 280 288 M280 32 C280.92 85.07, 280.69 138.83, 280 288 M280 288 C278.09 308.86, 269.39 319.4, 248 320 M280 288 C278.92 309.59, 269.64 318.48, 248 320 M248 320 C164.5 318.87, 79.31 319.01, 32 320 M248 320 C193.24 320.98, 137.71 320.7, 32 320 M32 320 C11.88 319.83, -0.58 307.92, 0 288 M32 320 C12.57 319.86, -0.61 311.21, 0 288 M0 288 C1.08 203.29, -0.35 118.94, 0 32 M0 288 C-0.6 209.77, -0.82 129.99, 0 32 M0 32 C-0.59 10.86, 11.38 1.38, 32 0 M0 32 C0.87 10.86, 9.01 -0.34, 32 0" stroke="#1864ab" stroke-width="2" fill="none"></path></g><g transform="translate(133.92002868652344 95) rotate(0 36.07997131347656 12)"><text x="36.07997131347656" y="0" font-family="Virgil, Segoe UI Emoji" font-size="20px" fill="#1864ab" text-anchor="middle" style="white-space: pre;" direction="ltr" dominant-baseline="text-before-edge">Parent1</text></g><g stroke-linecap="round" transform="translate(10 10) rotate(0 310 210)"><path d="M32 0 M32 0 C154.31 0.91, 277.65 1.55, 588 0 M32 0 C218.93 -0.11, 405.25 -0.36, 588 0 M588 0 C610.98 -0.12, 619.47 12.3, 620 32 M588 0 C610.02 -0.44, 620.49 11.65, 620 32 M620 32 C619.06 132.95, 619.96 233.17, 620 388 M620 32 C619.31 170.68, 619.73 309.67, 620 388 M620 388 C620.75 409.5, 607.89 419.71, 588 420 M620 388 C618.25 407.9, 609.08 419.03, 588 420 M588 420 C417.89 421.63, 247.18 421.52, 32 420 M588 420 C433.24 418.72, 278.62 418.37, 32 420 M32 420 C10.61 419.77, -0.22 408.6, 0 388 M32 420 C8.48 417.99, 1.19 408.55, 0 388 M0 388 C-0.83 273.87, -1.19 161.1, 0 32 M0 388 C1.59 277.59, 2.21 165.7, 0 32 M0 32 C-0.72 10.98, 9.15 -1.88, 32 0 M0 32 C1.97 9.94, 9.63 -0.71, 32 0" stroke="#1864ab" stroke-width="2" fill="none"></path></g><g transform="translate(296.4900207519531 15) rotate(0 23.509979248046875 12)"><text x="23.509979248046875" y="0" font-family="Virgil, Segoe UI Emoji" font-size="20px" fill="#1864ab" text-anchor="middle" style="white-space: pre;" direction="ltr" dominant-baseline="text-before-edge">Root</text></g><g stroke-linecap="round" transform="translate(331.77047739069894 91.1859034460038) rotate(0 140 100)"><path d="M32 0 M32 0 C100.95 0.65, 167.02 1.78, 248 0 M32 0 C101.15 -1.02, 172.41 -1.49, 248 0 M248 0 C269.13 -0.71, 279.7 11.4, 280 32 M248 0 C268.77 1.25, 280.94 12.87, 280 32 M280 32 C277.85 75.38, 277.1 121.04, 280 168 M280 32 C282.01 79.47, 280.37 126.2, 280 168 M280 168 C280.06 188.73, 268.39 200.23, 248 200 M280 168 C280.3 187.81, 271.39 201.67, 248 200 M248 200 C179.83 197.26, 111.82 197.02, 32 200 M248 200 C174.67 200.7, 103.58 200.6, 32 200 M32 200 C10.09 198.59, 1.65 189.21, 0 168 M32 200 C10.06 201.88, 0.69 188.89, 0 168 M0 168 C-1.5 124.03, -0.41 81.18, 0 32 M0 168 C-0.29 116.32, -0.37 65.01, 0 32 M0 32 C0.72 12.04, 11.42 0.17, 32 0 M0 32 C-1.66 10.33, 8.92 -1.44, 32 0" stroke="#1864ab" stroke-width="2" fill="none"></path></g><g transform="translate(431.28051004450754 96.1859034460038) rotate(0 40.489967346191406 12)"><text x="40.489967346191406" y="0" font-family="Virgil, Segoe UI Emoji" font-size="20px" fill="#1864ab" text-anchor="middle" style="white-space: pre;" direction="ltr" dominant-baseline="text-before-edge">Parent2</text></g><g stroke-linecap="round" transform="translate(51.77047739069894 211.18590344600375) rotate(0 120 90)"><path d="M32 0 M32 0 C68.75 1.16, 107.87 1.58, 208 0 M32 0 C97.33 -0.74, 160.61 -0.8, 208 0 M208 0 C229.04 0.73, 239.51 11.75, 240 32 M208 0 C230.27 2.2, 240.62 8.86, 240 32 M240 32 C237.53 69.76, 240.31 109.2, 240 148 M240 32 C239.84 63.08, 240.83 94.33, 240 148 M240 148 C239.06 169.56, 229.6 178.68, 208 180 M240 148 C242.06 171, 229.64 180.79, 208 180 M208 180 C168.23 177.05, 131.04 178.66, 32 180 M208 180 C149.51 179.97, 89.52 179.35, 32 180 M32 180 C12.32 179.88, -0.53 170.97, 0 148 M32 180 C11.35 179.56, 0.49 170.31, 0 148 M0 148 C0.7 115.86, 2.12 82.59, 0 32 M0 148 C-0.04 102.93, 0.61 58.35, 0 32 M0 32 C0.75 10.84, 9.22 -0.29, 32 0 M0 32 C-1.75 9.23, 10.41 -0.97, 32 0" stroke="#1864ab" stroke-width="2" fill="none"></path></g><g transform="translate(147.17050180476144 216.18590344600375) rotate(0 24.5999755859375 12)"><text x="24.5999755859375" y="0" font-family="Virgil, Segoe UI Emoji" font-size="20px" fill="#1864ab" text-anchor="middle" style="white-space: pre;" direction="ltr" dominant-baseline="text-before-edge">Child1</text></g><g stroke-linecap="round" transform="translate(351.77047739069894 171.18590344600375) rotate(0 120 50)"><path d="M25 0 M25 0 C71.98 0.43, 119.34 -1.62, 215 0 M25 0 C86.74 0.2, 148.53 0.92, 215 0 M215 0 C231.18 1.08, 240.82 10.25, 240 25 M215 0 C232.29 -1.8, 240.56 7.08, 240 25 M240 25 C240.49 39.26, 238.94 51, 240 75 M240 25 C239.55 40.98, 239.05 57.67, 240 75 M240 75 C240.26 90.35, 233.45 101.45, 215 100 M240 75 C240.31 92.46, 229.84 99.36, 215 100 M215 100 C172.25 98.3, 128.79 96.43, 25 100 M215 100 C157.09 99.13, 100.58 99.77, 25 100 M25 100 C7.81 101.63, 0.6 91.28, 0 75 M25 100 C8.83 100.98, -0.4 90.61, 0 75 M0 75 C1.54 60.73, 1.75 45.81, 0 25 M0 75 C0.51 61.39, 0.52 46.49, 0 25 M0 25 C-1.44 8.04, 6.81 -1.25, 25 0 M0 25 C-0.26 7.36, 8.49 -0.83, 25 0" stroke="#1864ab" stroke-width="2" fill="none"></path></g><g transform="translate(442.7605057720466 176.18590344600375) rotate(0 29.009971618652344 12)"><text x="29.009971618652344" y="0" font-family="Virgil, Segoe UI Emoji" font-size="20px" fill="#1864ab" text-anchor="middle" style="white-space: pre;" direction="ltr" dominant-baseline="text-before-edge">Child2</text></g><g stroke-linecap="round" transform="translate(131.77047739069894 291.18590344600375) rotate(0 40 40)"><path d="M25.61 2.47 C31.72 -0.66, 40.86 -0.75, 48.02 0.74 C55.18 2.22, 63.29 6.21, 68.56 11.38 C73.82 16.55, 77.95 24.65, 79.6 31.78 C81.25 38.9, 81.2 47.39, 78.48 54.13 C75.76 60.86, 69.3 67.98, 63.29 72.19 C57.28 76.39, 49.65 78.84, 42.44 79.35 C35.23 79.86, 26.2 78.42, 20.03 75.23 C13.86 72.05, 8.8 66.47, 5.43 60.26 C2.05 54.05, -0.66 45.48, -0.21 37.96 C0.25 30.45, 2.61 21.41, 8.16 15.18 C13.7 8.95, 27.65 3.07, 33.07 0.59 C38.48 -1.88, 40.46 -0.33, 40.63 0.34 M27.22 2.68 C33.1 -0.32, 41.56 -0.78, 48.35 0.73 C55.14 2.25, 63.01 6.39, 67.96 11.78 C72.9 17.17, 76.51 25.79, 78.03 33.07 C79.54 40.36, 79.76 48.9, 77.03 55.51 C74.29 62.11, 67.36 68.64, 61.64 72.7 C55.92 76.75, 49.73 79.69, 42.7 79.83 C35.67 79.97, 25.65 77.14, 19.47 73.52 C13.29 69.91, 8.91 64.17, 5.63 58.14 C2.35 52.1, -0.78 44.52, -0.2 37.31 C0.37 30.1, 4.48 20.65, 9.08 14.9 C13.67 9.14, 24.36 4.91, 27.35 2.8 C30.34 0.69, 26.89 1.68, 27.02 2.23" stroke="#5c940d" stroke-width="2" fill="none"></path></g><g transform="translate(152.3462296417722 319.40163219854185) rotate(0 19.639976501464844 12)"><text x="19.639976501464844" y="0" font-family="Virgil, Segoe UI Emoji" font-size="20px" fill="#5c940d" text-anchor="middle" style="white-space: pre;" direction="ltr" dominant-baseline="text-before-edge">emit</text></g><g transform="translate(151.77047739069894 131.18590344600375) rotate(0 41.489967346191406 12)"><text x="0" y="0" font-family="Virgil, Segoe UI Emoji" font-size="20px" fill="#e67700" text-anchor="start" style="white-space: pre;" direction="ltr" dominant-baseline="text-before-edge">handler2</text></g><g transform="translate(111.77047739069894 251.18590344600375) rotate(0 37.07997131347656 12)"><text x="0" y="0" font-family="Virgil, Segoe UI Emoji" font-size="20px" fill="#e67700" text-anchor="start" style="white-space: pre;" direction="ltr" dominant-baseline="text-before-edge">handler1</text></g><g transform="translate(191.77047739069894 51.185903446003806) rotate(0 41.179969787597656 12)"><text x="0" y="0" font-family="Virgil, Segoe UI Emoji" font-size="20px" fill="#e67700" text-anchor="start" style="white-space: pre;" direction="ltr" dominant-baseline="text-before-edge">handler3</text></g><g transform="translate(451.77047739069894 211.18590344600375) rotate(0 40.76996612548828 12)"><text x="0" y="0" font-family="Virgil, Segoe UI Emoji" font-size="20px" fill="#e67700" text-anchor="start" style="white-space: pre;" direction="ltr" dominant-baseline="text-before-edge">handler4</text></g><g mask="url(#mask-pzuLINSwH4mRfny_01JRA)" stroke-linecap="round"><g transform="translate(192.8342878055846 291.73573372766487) rotate(0 58.55601369967235 -121.21349991363527)"><path d="M-0.12 -0.42 C19.47 -40.38, 98.96 -200.2, 118.76 -240.11 M-1.65 -1.69 C17.67 -41.99, 97.82 -201.97, 117.72 -242" stroke="#5c940d" stroke-width="2" fill="none"></path></g><g transform="translate(192.8342878055846 291.73573372766487) rotate(0 58.55601369967235 -121.21349991363527)"><path d="M117.63 -242.18 L117.83 -228.97 L105.92 -232.9 L117.5 -242.73" stroke="none" stroke-width="0" fill="#5c940d" fill-rule="evenodd"></path><path d="M117.19 -242.23 C118.06 -236.4, 118.17 -229.46, 118.76 -226.61 M117.31 -242.69 C117.71 -238.33, 118.31 -235.59, 117.83 -226.82 M116.94 -227.6 C115.16 -228, 111.86 -228.19, 106.89 -232.5 M116.87 -227.3 C113.03 -228.71, 109.75 -230.6, 105.35 -232.65 M104.91 -231.43 C110.13 -236.4, 115.68 -238.92, 117.43 -241.68 M105.88 -232.61 C110.25 -235.22, 114.08 -238.34, 117.55 -242.11 M117.72 -242 C117.72 -242, 117.72 -242, 117.72 -242 M117.72 -242 C117.72 -242, 117.72 -242, 117.72 -242" stroke="#5c940d" stroke-width="2" fill="none"></path></g></g><mask id="mask-pzuLINSwH4mRfny_01JRA"><rect x="0" y="0" fill="#fff" width="411.77047739069894" height="632.285564009326"></rect><rect x="222.0724097587863" y="159.46081858683434" fill="#000" width="60.45994567871094" height="24" opacity="1"></rect></mask><g transform="translate(222.0724097587863 159.4608185868343) rotate(0 29.31789174647065 11.061415227195255)"><text x="30.22997283935547" y="0" font-family="Virgil, Segoe UI Emoji" font-size="20px" fill="#5c940d" text-anchor="middle" style="white-space: pre;" direction="ltr" dominant-baseline="text-before-edge">active</text></g><g mask="url(#mask-26W6wVMbRWQM5QhE45DOZ)" stroke-linecap="round"><g transform="translate(312.8945468950642 51.644948664605636) rotate(0 58.42588961337697 89.90752731780522)"><path d="M-0.18 0.44 C19.61 30.54, 98.66 150.15, 118.58 180.19 M-1.73 -0.38 C17.88 29.41, 97.38 148.52, 117.48 178.41" stroke="#0b7285" stroke-width="2" fill="none"></path></g><g transform="translate(312.8945468950642 51.644948664605636) rotate(0 58.42588961337697 89.90752731780522)"><path d="M117.99 176.45 L104.6 170.41 L114.97 162.86 L115.58 176.66" stroke="none" stroke-width="0" fill="#0b7285" fill-rule="evenodd"></path><path d="M118.03 178.04 C114.6 176.75, 111.51 174.29, 103.47 171.01 M117.53 178.76 C115.1 176.16, 111.73 174.67, 103.93 170.46 M104.79 170.81 C107.03 169.69, 111.98 166.58, 115.62 162.58 M104.11 170.87 C107.54 169, 109.81 166.87, 115.57 163.53 M115.09 163.19 C116.93 168.03, 116.04 171.93, 118.12 178.15 M115.42 164.18 C115.79 168.02, 116.17 171.01, 117.26 178.49 M117.48 178.41 C117.48 178.41, 117.48 178.41, 117.48 178.41 M117.48 178.41 C117.48 178.41, 117.48 178.41, 117.48 178.41" stroke="#0b7285" stroke-width="2" fill="none"></path></g></g><mask id="mask-26W6wVMbRWQM5QhE45DOZ"><rect x="0" y="0" fill="#fff" width="531.7704773906989" height="331.1859034460038"></rect><rect x="336.98255181573313" y="129.41542605530472" fill="#000" width="70.69992065429688" height="24" opacity="1"></rect></mask><g transform="translate(336.98255181573313 129.4154260553047) rotate(0 34.33788469270803 12.137049927106133)"><text x="35.34996032714844" y="0" font-family="Virgil, Segoe UI Emoji" font-size="20px" fill="#0b7285" text-anchor="middle" style="white-space: pre;" direction="ltr" dominant-baseline="text-before-edge">passive</text></g></svg>